PathFileType	4	(X/Y/Z)	D:\TRACE\spot_10-12-23\spot_body_baseline_4-v60.trc
DataRate	CameraRate	NumFrames	NumMarkers	Units	OrigDataRate	OrigDataStartFrame	OrigNumFrames
100.00	100.00	      21	9	mm	100.00	5251	      7000
Frame#	Time	front left toe			Front right toe			aft left toe			aft right toe			Arm			FL body			FR body			AL Body			AR Body			
		X1	Y1	Z1	X2	Y2	Z2	X3	Y3	Z3	X4	Y4	Z4	X5	Y5	Z5	X6	Y6	Z6	X7	Y7	Z7	X8	Y8	Z8	X9	Y9	Z9	

5251	52.500	-277.79150	24.68196	142.52518	300.53784	25.82046	85.00474	-220.97415	25.95914	678.28424	334.74268	19.96586	598.68481	9.60818	805.29169	-47.61177	-75.73508	543.72784	-18.56933	76.05213	547.37671	-35.82228	17.19836	553.78882	859.71088	166.01689	549.36719	843.87354	
5252	52.510	-277.77438	24.70035	142.59634	300.60614	25.75694	85.05460	-220.95425	25.95689	678.31873	334.76266	19.87747	598.72211	10.26455	805.36053	-46.83213	-75.57188	543.97064	-17.97178	76.68042	547.33179	-34.72154	17.61640	553.81299	860.55615	169.82158	552.07947	848.50958	
5253	52.520	-277.77963	24.73967	142.62454	300.87000	25.98411	85.09668	-220.94974	26.08773	678.33582	334.78253	19.86447	598.83020	10.83081	805.49243	-46.01610	-74.99551	544.10974	-17.02790	77.17430	547.27576	-33.66122	18.15442	553.85974	861.50421	170.16072	551.91937	849.66095	
5254	52.530	-277.74924	24.75348	142.72153	300.89606	25.96803	85.16597	-220.89165	26.11571	678.38153	334.80194	19.81284	598.81207	11.71461	805.69623	-45.05249	-74.62005	544.41400	-16.24803	77.52071	547.35773	-33.35981	18.78993	553.87262	862.16296	170.82408	551.78522	850.11182	
5255	52.540	-277.72476	24.76489	142.76772	300.93414	25.91335	85.18970	-220.89438	26.06606	678.38306	334.87674	19.80028	598.99957	12.29608	805.76331	-44.28564	-73.96488	544.50854	-15.52246	78.16250	547.33734	-32.26244	19.12740	554.06128	863.04816	170.92633	551.31805	850.72241	
5256	52.550	-277.70886	24.78991	142.80038	300.96466	25.82407	85.25947	-220.86511	26.14057	678.43591	334.79507	19.99490	598.86523	12.71863	805.90149	-43.42101	-73.60098	544.64191	-14.64483	78.51833	547.39697	-31.65954	19.47193	553.94476	863.98773	171.43695	551.88019	851.70343	
5257	52.560	-277.68976	24.87889	142.82172	300.93781	25.79469	85.31947	-220.79384	26.17965	678.47656	334.88345	19.73029	599.05951	13.32191	805.99963	-42.59672	-73.15990	544.81677	-13.77834	78.97590	547.51068	-30.62721	20.19413	554.08667	864.77252	171.03893	550.84705	851.54254	
5258	52.570	-277.67578	24.92725	142.85083	301.06802	25.80957	85.37181	-220.76640	26.18578	678.50964	334.78995	19.91983	598.88501	13.86840	806.11414	-41.73800	-72.75718	545.03192	-12.96798	79.43292	547.55603	-29.43010	20.49817	554.09839	865.35089	171.02939	550.36792	851.65955	
5259	52.580	-277.65753	24.92434	142.86203	301.01260	25.62662	85.26407	-220.74417	26.25292	678.53333	334.96982	19.74444	599.20258	14.38777	806.24170	-40.79381	-72.45145	545.20081	-12.13680	79.73911	547.75177	-29.01784	20.99828	554.10718	866.64655	171.50224	550.24072	852.63062	
5260	52.590	-277.66910	24.98447	142.88405	301.08295	25.72350	85.44122	-220.71519	26.32417	678.58075	334.82925	19.88704	599.00104	14.99465	806.40747	-39.95457	-71.84220	545.20587	-11.07279	80.43298	547.75537	-27.63039	21.45085	553.94287	867.27576	171.81189	550.18268	853.27911	
5261	52.600	-277.65149	25.05128	142.93718	301.10855	25.74775	85.50774	-220.67108	26.37087	678.61981	334.86154	19.89765	599.00500	15.71123	806.61737	-38.97422	-71.62666	545.60028	-10.38570	80.66941	548.01190	-27.38925	21.96096	553.81281	868.23688	172.40096	550.14307	854.36377	
5262	52.610	-277.62708	25.08257	142.98058	300.98590	25.64525	85.36510	-220.65028	26.33613	678.65143	334.86322	19.92875	599.04053	16.24040	806.79596	-38.04973	-70.89449	545.69537	-9.39326	81.25001	548.20728	-26.29450	22.41160	553.88177	869.24048	172.72325	549.94830	854.96655	
5263	52.620	-277.65244	25.05906	143.06810	301.02478	25.63241	85.44471	-220.58003	26.40900	678.69739	334.87640	19.87783	599.04645	16.67403	806.96179	-37.16712	-70.66981	545.84424	-8.61136	81.36061	548.28748	-25.57957	22.79251	553.97668	870.07336	173.36223	549.87140	856.07855	
5264	52.630	-277.60245	25.14249	143.12445	301.23203	25.70412	85.69591	-220.55956	26.45224	678.70050	334.89264	19.86333	599.04797	17.28351	807.05280	-36.30083	-70.06194	545.98236	-7.64628	81.81968	548.24493	-24.49992	23.44524	553.94830	870.80780	173.79968	549.67224	856.77264	
5265	52.640	-277.60733	25.20443	143.11827	301.10165	25.51260	85.59260	-220.57999	26.45539	678.70111	334.90790	19.87823	599.08057	17.85527	807.07703	-35.38988	-69.81524	546.22723	-6.84451	82.35399	548.18677	-23.38038	23.85643	554.26477	871.89630	174.45190	549.76617	857.77332	
5266	52.650	-277.54413	25.16116	143.21475	300.98825	25.39535	85.69059	-220.54689	26.55455	678.76538	334.87936	19.84877	599.10779	18.35400	807.10938	-34.55286	-69.27851	546.19672	-5.80257	82.80029	548.23309	-23.05231	24.53195	554.20477	872.78802	174.81821	549.72906	858.50006	
5267	52.660	-277.51367	25.19660	143.29591	301.00903	25.42584	85.80833	-220.49808	26.58785	678.81647	334.91669	19.86921	599.13159	19.13533	807.12250	-33.60367	-68.97020	546.45282	-5.02710	83.41587	548.21417	-21.91508	25.13493	554.18768	873.50781	175.36528	549.65253	859.53717	
5268	52.670	-277.46606	25.25430	143.29251	301.10159	25.40072	85.84591	-220.48224	26.59601	678.84039	334.91318	19.82539	599.15814	19.67420	807.16211	-32.69764	-68.29897	546.54187	-3.98662	83.78003	548.29553	-21.13192	25.78252	554.11786	874.79535	175.95813	549.59625	859.86310	
5269	52.680	-277.42825	25.31528	143.35489	301.07062	25.32848	85.90529	-220.41844	26.64751	678.93549	334.93414	19.78955	599.19049	20.19523	807.29846	-31.72644	-68.04627	546.72217	-3.29863	84.24666	548.26727	-19.86947	25.80048	554.38293	875.71832	176.26735	549.37207	861.26141	
5270	52.690	-277.40274	25.30704	143.37657	301.18713	25.29651	85.97996	-220.36427	26.64824	678.92499	334.94913	19.74847	599.22675	20.68644	807.29529	-30.80804	-67.46386	546.57599	-2.23320	84.50955	548.33264	-19.13143	26.59748	554.10510	876.38824	176.77193	549.49701	861.88123	
5271	52.700	-277.40961	25.27291	143.46054	301.22348	25.19863	86.02655	-220.32309	26.69681	678.97955	334.99393	19.71010	599.28040	21.38308	807.36060	-29.87420	-67.25822	546.70135	-1.38584	85.02985	548.42389	-18.22782	26.61699	554.10278	876.96692	177.37648	549.25269	862.98022	
